<svg width="500" height="500" viewBox="0 0 500 500" fill="none" xmlns="http://www.w3.org/2000/svg">
<rect x="12.5" y="12.5" width="475" height="475" fill="#0277BD" stroke="white" stroke-width="25"/>
<path d="M107.688 348V143.25H174.625C196.844 143.25 213.531 147.844 224.688 157.031C235.938 166.219 241.562 179.812 241.562 197.812C241.562 207.375 238.844 215.859 233.406 223.266C227.969 230.578 220.562 236.25 211.188 240.281C222.25 243.375 230.969 249.281 237.344 258C243.812 266.625 247.047 276.938 247.047 288.938C247.047 307.312 241.094 321.75 229.188 332.25C217.281 342.75 200.453 348 178.703 348H107.688ZM134.688 252.234V325.922H179.266C191.828 325.922 201.719 322.688 208.938 316.219C216.25 309.656 219.906 300.656 219.906 289.219C219.906 264.562 206.5 252.234 179.688 252.234H134.688ZM134.688 230.578H175.469C187.281 230.578 196.703 227.625 203.734 221.719C210.859 215.812 214.422 207.797 214.422 197.672C214.422 186.422 211.141 178.266 204.578 173.203C198.016 168.047 188.031 165.469 174.625 165.469H134.688V230.578ZM346.188 350.812C325.562 350.812 308.781 344.062 295.844 330.562C282.906 316.969 276.438 298.828 276.438 276.141V271.359C276.438 256.266 279.297 242.812 285.016 231C290.828 219.094 298.891 209.812 309.203 203.156C319.609 196.406 330.859 193.031 342.953 193.031C362.734 193.031 378.109 199.547 389.078 212.578C400.047 225.609 405.531 244.266 405.531 268.547V279.375H302.453C302.828 294.375 307.188 306.516 315.531 315.797C323.969 324.984 334.656 329.578 347.594 329.578C356.781 329.578 364.562 327.703 370.938 323.953C377.312 320.203 382.891 315.234 387.672 309.047L403.562 321.422C390.812 341.016 371.688 350.812 346.188 350.812ZM342.953 214.406C332.453 214.406 323.641 218.25 316.516 225.938C309.391 233.531 304.984 244.219 303.297 258H379.516V256.031C378.766 242.812 375.203 232.594 368.828 225.375C362.453 218.062 353.828 214.406 342.953 214.406Z" fill="white"/>
<path d="M452.281 76.8086H459.383V82.1172H452.281V94H445.742V82.1172H422.434V78.2852L445.355 42.8125H452.281V76.8086ZM429.816 76.8086H445.742V51.707L444.969 53.1133L429.816 76.8086Z" fill="white"/>
</svg>
