<svg width="2093" height="1000" viewBox="0 0 2093 1000" fill="none" xmlns="http://www.w3.org/2000/svg">
<rect x="512.5" y="512.5" width="475" height="475" fill="#0277BD" stroke="white" stroke-width="25"/>
<path d="M1044.3 695.844L1045.14 714.969C1056.77 700.344 1071.95 693.031 1090.7 693.031C1122.86 693.031 1139.08 711.172 1139.36 747.453V848H1113.34V747.312C1113.25 736.344 1110.72 728.234 1105.75 722.984C1100.88 717.734 1093.23 715.109 1082.83 715.109C1074.39 715.109 1066.98 717.359 1060.61 721.859C1054.23 726.359 1049.27 732.266 1045.7 739.578V848H1019.69V695.844H1044.3ZM1241.73 850.812C1221.11 850.812 1204.33 844.062 1191.39 830.562C1178.45 816.969 1171.98 798.828 1171.98 776.141V771.359C1171.98 756.266 1174.84 742.812 1180.56 731C1186.38 719.094 1194.44 709.812 1204.75 703.156C1215.16 696.406 1226.41 693.031 1238.5 693.031C1258.28 693.031 1273.66 699.547 1284.62 712.578C1295.59 725.609 1301.08 744.266 1301.08 768.547V779.375H1198C1198.38 794.375 1202.73 806.516 1211.08 815.797C1219.52 824.984 1230.2 829.578 1243.14 829.578C1252.33 829.578 1260.11 827.703 1266.48 823.953C1272.86 820.203 1278.44 815.234 1283.22 809.047L1299.11 821.422C1286.36 841.016 1267.23 850.812 1241.73 850.812ZM1238.5 714.406C1228 714.406 1219.19 718.25 1212.06 725.938C1204.94 733.531 1200.53 744.219 1198.84 758H1275.06V756.031C1274.31 742.812 1270.75 732.594 1264.38 725.375C1258 718.062 1249.38 714.406 1238.5 714.406ZM1404.86 719.188C1400.92 718.531 1396.66 718.203 1392.06 718.203C1375 718.203 1363.42 725.469 1357.33 740V848H1331.31V695.844H1356.62L1357.05 713.422C1365.58 699.828 1377.67 693.031 1393.33 693.031C1398.39 693.031 1402.23 693.688 1404.86 695V719.188ZM1517.22 848C1515.72 845 1514.5 839.656 1513.56 831.969C1501.47 844.531 1487.03 850.812 1470.25 850.812C1455.25 850.812 1442.92 846.594 1433.27 838.156C1423.7 829.625 1418.92 818.844 1418.92 805.812C1418.92 789.969 1424.92 777.688 1436.92 768.969C1449.02 760.156 1465.98 755.75 1487.83 755.75H1513.14V743.797C1513.14 734.703 1510.42 727.484 1504.98 722.141C1499.55 716.703 1491.53 713.984 1480.94 713.984C1471.66 713.984 1463.88 716.328 1457.59 721.016C1451.31 725.703 1448.17 731.375 1448.17 738.031H1422.02C1422.02 730.438 1424.69 723.125 1430.03 716.094C1435.47 708.969 1442.78 703.344 1451.97 699.219C1461.25 695.094 1471.42 693.031 1482.48 693.031C1500.02 693.031 1513.75 697.438 1523.69 706.25C1533.62 714.969 1538.78 727.016 1539.16 742.391V812.422C1539.16 826.391 1540.94 837.5 1544.5 845.75V848H1517.22ZM1474.05 828.172C1482.2 828.172 1489.94 826.062 1497.25 821.844C1504.56 817.625 1509.86 812.141 1513.14 805.391V774.172H1492.75C1460.88 774.172 1444.94 783.5 1444.94 802.156C1444.94 810.312 1447.66 816.688 1453.09 821.281C1458.53 825.875 1465.52 828.172 1474.05 828.172ZM1615.23 659V695.844H1643.64V715.953H1615.23V810.312C1615.23 816.406 1616.5 821 1619.03 824.094C1621.56 827.094 1625.88 828.594 1631.97 828.594C1634.97 828.594 1639.09 828.031 1644.34 826.906V848C1637.5 849.875 1630.84 850.812 1624.38 850.812C1612.75 850.812 1603.98 847.297 1598.08 840.266C1592.17 833.234 1589.22 823.25 1589.22 810.312V715.953H1561.52V695.844H1589.22V659H1615.23ZM1664.45 770.516C1664.45 755.609 1667.36 742.203 1673.17 730.297C1679.08 718.391 1687.23 709.203 1697.64 702.734C1708.14 696.266 1720.09 693.031 1733.5 693.031C1754.22 693.031 1770.95 700.203 1783.7 714.547C1796.55 728.891 1802.97 747.969 1802.97 771.781V773.609C1802.97 788.422 1800.11 801.734 1794.39 813.547C1788.77 825.266 1780.66 834.406 1770.06 840.969C1759.56 847.531 1747.47 850.812 1733.78 850.812C1713.16 850.812 1696.42 843.641 1683.58 829.297C1670.83 814.953 1664.45 795.969 1664.45 772.344V770.516ZM1690.61 773.609C1690.61 790.484 1694.5 804.031 1702.28 814.25C1710.16 824.469 1720.66 829.578 1733.78 829.578C1747 829.578 1757.5 824.422 1765.28 814.109C1773.06 803.703 1776.95 789.172 1776.95 770.516C1776.95 753.828 1772.97 740.328 1765 730.016C1757.12 719.609 1746.62 714.406 1733.5 714.406C1720.66 714.406 1710.3 719.516 1702.42 729.734C1694.55 739.953 1690.61 754.578 1690.61 773.609ZM1909.14 719.188C1905.2 718.531 1900.94 718.203 1896.34 718.203C1879.28 718.203 1867.7 725.469 1861.61 740V848H1835.59V695.844H1860.91L1861.33 713.422C1869.86 699.828 1881.95 693.031 1897.61 693.031C1902.67 693.031 1906.52 693.688 1909.14 695V719.188Z" fill="#0277BD"/>
<path d="M750.422 821.141C743.484 831.078 733.781 838.531 721.312 843.5C708.938 848.375 694.5 850.812 678 850.812C661.312 850.812 646.5 846.922 633.562 839.141C620.625 831.266 610.594 820.109 603.469 805.672C596.438 791.234 592.828 774.5 592.641 755.469V737.609C592.641 706.766 599.812 682.859 614.156 665.891C628.594 648.922 648.844 640.438 674.906 640.438C696.281 640.438 713.484 645.922 726.516 656.891C739.547 667.766 747.516 683.234 750.422 703.297H723.422C718.359 676.203 702.234 662.656 675.047 662.656C656.953 662.656 643.219 669.031 633.844 681.781C624.562 694.438 619.875 712.812 619.781 736.906V753.641C619.781 776.609 625.031 794.891 635.531 808.484C646.031 821.984 660.234 828.734 678.141 828.734C688.266 828.734 697.125 827.609 704.719 825.359C712.312 823.109 718.594 819.312 723.562 813.969V767.984H676.172V746.047H750.422V821.141ZM854.625 850.812C834 850.812 817.219 844.062 804.281 830.562C791.344 816.969 784.875 798.828 784.875 776.141V771.359C784.875 756.266 787.734 742.812 793.453 731C799.266 719.094 807.328 709.812 817.641 703.156C828.047 696.406 839.297 693.031 851.391 693.031C871.172 693.031 886.547 699.547 897.516 712.578C908.484 725.609 913.969 744.266 913.969 768.547V779.375H810.891C811.266 794.375 815.625 806.516 823.969 815.797C832.406 824.984 843.094 829.578 856.031 829.578C865.219 829.578 873 827.703 879.375 823.953C885.75 820.203 891.328 815.234 896.109 809.047L912 821.422C899.25 841.016 880.125 850.812 854.625 850.812ZM851.391 714.406C840.891 714.406 832.078 718.25 824.953 725.938C817.828 733.531 813.422 744.219 811.734 758H887.953V756.031C887.203 742.812 883.641 732.594 877.266 725.375C870.891 718.062 862.266 714.406 851.391 714.406Z" fill="white"/>
<path d="M893.852 565.242H898.738C901.809 565.195 904.223 564.387 905.98 562.816C907.738 561.246 908.617 559.125 908.617 556.453C908.617 550.453 905.629 547.453 899.652 547.453C896.84 547.453 894.59 548.262 892.902 549.879C891.238 551.473 890.406 553.594 890.406 556.242H883.902C883.902 552.188 885.379 548.824 888.332 546.152C891.309 543.457 895.082 542.109 899.652 542.109C904.48 542.109 908.266 543.387 911.008 545.941C913.75 548.496 915.121 552.047 915.121 556.594C915.121 558.82 914.395 560.977 912.941 563.062C911.512 565.148 909.555 566.707 907.07 567.738C909.883 568.629 912.051 570.105 913.574 572.168C915.121 574.23 915.895 576.75 915.895 579.727C915.895 584.32 914.395 587.965 911.395 590.66C908.395 593.355 904.492 594.703 899.688 594.703C894.883 594.703 890.969 593.402 887.945 590.801C884.945 588.199 883.445 584.766 883.445 580.5H889.984C889.984 583.195 890.863 585.352 892.621 586.969C894.379 588.586 896.734 589.395 899.688 589.395C902.828 589.395 905.23 588.574 906.895 586.934C908.559 585.293 909.391 582.938 909.391 579.867C909.391 576.891 908.477 574.605 906.648 573.012C904.82 571.418 902.184 570.598 898.738 570.551H893.852V565.242ZM958.363 594H924.824V589.324L942.543 569.637C945.168 566.66 946.973 564.246 947.957 562.395C948.965 560.52 949.469 558.586 949.469 556.594C949.469 553.922 948.66 551.73 947.043 550.02C945.426 548.309 943.27 547.453 940.574 547.453C937.34 547.453 934.82 548.379 933.016 550.23C931.234 552.059 930.344 554.613 930.344 557.895H923.84C923.84 553.184 925.352 549.375 928.375 546.469C931.422 543.562 935.488 542.109 940.574 542.109C945.332 542.109 949.094 543.363 951.859 545.871C954.625 548.355 956.008 551.672 956.008 555.82C956.008 560.859 952.797 566.859 946.375 573.82L932.664 588.691H958.363V594Z" fill="white"/>
<rect x="12.5" y="12.5" width="475" height="475" fill="#0277BD" stroke="white" stroke-width="25"/>
<path d="M593.234 233.188C589.297 232.531 585.031 232.203 580.438 232.203C563.375 232.203 551.797 239.469 545.703 254V362H519.688V209.844H545L545.422 227.422C553.953 213.828 566.047 207.031 581.703 207.031C586.766 207.031 590.609 207.688 593.234 209V233.188ZM645.547 362H619.531V209.844H645.547V362ZM617.422 169.484C617.422 165.266 618.688 161.703 621.219 158.797C623.844 155.891 627.688 154.438 632.75 154.438C637.812 154.438 641.656 155.891 644.281 158.797C646.906 161.703 648.219 165.266 648.219 169.484C648.219 173.703 646.906 177.219 644.281 180.031C641.656 182.844 637.812 184.25 632.75 184.25C627.688 184.25 623.844 182.844 621.219 180.031C618.688 177.219 617.422 173.703 617.422 169.484ZM748.344 343.578C757.625 343.578 765.734 340.766 772.672 335.141C779.609 329.516 783.453 322.484 784.203 314.047H808.812C808.344 322.766 805.344 331.062 799.812 338.938C794.281 346.812 786.875 353.094 777.594 357.781C768.406 362.469 758.656 364.812 748.344 364.812C727.625 364.812 711.125 357.922 698.844 344.141C686.656 330.266 680.562 311.328 680.562 287.328V282.969C680.562 268.156 683.281 254.984 688.719 243.453C694.156 231.922 701.938 222.969 712.062 216.594C722.281 210.219 734.328 207.031 748.203 207.031C765.266 207.031 779.422 212.141 790.672 222.359C802.016 232.578 808.062 245.844 808.812 262.156H784.203C783.453 252.312 779.703 244.25 772.953 237.969C766.297 231.594 758.047 228.406 748.203 228.406C734.984 228.406 724.719 233.188 717.406 242.75C710.188 252.219 706.578 265.953 706.578 283.953V288.875C706.578 306.406 710.188 319.906 717.406 329.375C724.625 338.844 734.938 343.578 748.344 343.578ZM864.078 228.266C875.609 214.109 890.609 207.031 909.078 207.031C941.234 207.031 957.453 225.172 957.734 261.453V362H931.719V261.312C931.625 250.344 929.094 242.234 924.125 236.984C919.25 231.734 911.609 229.109 901.203 229.109C892.766 229.109 885.359 231.359 878.984 235.859C872.609 240.359 867.641 246.266 864.078 253.578V362H838.062V146H864.078V228.266ZM1031.98 173V209.844H1060.39V229.953H1031.98V324.312C1031.98 330.406 1033.25 335 1035.78 338.094C1038.31 341.094 1042.62 342.594 1048.72 342.594C1051.72 342.594 1055.84 342.031 1061.09 340.906V362C1054.25 363.875 1047.59 364.812 1041.12 364.812C1029.5 364.812 1020.73 361.297 1014.83 354.266C1008.92 347.234 1005.97 337.25 1005.97 324.312V229.953H978.266V209.844H1005.97V173H1031.98ZM1179.5 321.641C1179.5 314.609 1176.83 309.172 1171.48 305.328C1166.23 301.391 1157 298.016 1143.78 295.203C1130.66 292.391 1120.2 289.016 1112.42 285.078C1104.73 281.141 1099.02 276.453 1095.27 271.016C1091.61 265.578 1089.78 259.109 1089.78 251.609C1089.78 239.141 1095.03 228.594 1105.53 219.969C1116.12 211.344 1129.62 207.031 1146.03 207.031C1163.28 207.031 1177.25 211.484 1187.94 220.391C1198.72 229.297 1204.11 240.688 1204.11 254.562H1177.95C1177.95 247.438 1174.91 241.297 1168.81 236.141C1162.81 230.984 1155.22 228.406 1146.03 228.406C1136.56 228.406 1129.16 230.469 1123.81 234.594C1118.47 238.719 1115.8 244.109 1115.8 250.766C1115.8 257.047 1118.28 261.781 1123.25 264.969C1128.22 268.156 1137.17 271.203 1150.11 274.109C1163.14 277.016 1173.69 280.484 1181.75 284.516C1189.81 288.547 1195.77 293.422 1199.61 299.141C1203.55 304.766 1205.52 311.656 1205.52 319.812C1205.52 333.406 1200.08 344.328 1189.2 352.578C1178.33 360.734 1164.22 364.812 1146.88 364.812C1134.69 364.812 1123.91 362.656 1114.53 358.344C1105.16 354.031 1097.8 348.031 1092.45 340.344C1087.2 332.562 1084.58 324.172 1084.58 315.172H1110.59C1111.06 323.891 1114.53 330.828 1121 335.984C1127.56 341.047 1136.19 343.578 1146.88 343.578C1156.72 343.578 1164.59 341.609 1170.5 337.672C1176.5 333.641 1179.5 328.297 1179.5 321.641ZM1265.42 228.266C1276.95 214.109 1291.95 207.031 1310.42 207.031C1342.58 207.031 1358.8 225.172 1359.08 261.453V362H1333.06V261.312C1332.97 250.344 1330.44 242.234 1325.47 236.984C1320.59 231.734 1312.95 229.109 1302.55 229.109C1294.11 229.109 1286.7 231.359 1280.33 235.859C1273.95 240.359 1268.98 246.266 1265.42 253.578V362H1239.41V146H1265.42V228.266ZM1461.17 364.812C1440.55 364.812 1423.77 358.062 1410.83 344.562C1397.89 330.969 1391.42 312.828 1391.42 290.141V285.359C1391.42 270.266 1394.28 256.812 1400 245C1405.81 233.094 1413.88 223.812 1424.19 217.156C1434.59 210.406 1445.84 207.031 1457.94 207.031C1477.72 207.031 1493.09 213.547 1504.06 226.578C1515.03 239.609 1520.52 258.266 1520.52 282.547V293.375H1417.44C1417.81 308.375 1422.17 320.516 1430.52 329.797C1438.95 338.984 1449.64 343.578 1462.58 343.578C1471.77 343.578 1479.55 341.703 1485.92 337.953C1492.3 334.203 1497.88 329.234 1502.66 323.047L1518.55 335.422C1505.8 355.016 1486.67 364.812 1461.17 364.812ZM1457.94 228.406C1447.44 228.406 1438.62 232.25 1431.5 239.938C1424.38 247.531 1419.97 258.219 1418.28 272H1494.5V270.031C1493.75 256.812 1490.19 246.594 1483.81 239.375C1477.44 232.062 1468.81 228.406 1457.94 228.406ZM1563.55 362V229.953H1539.5V209.844H1563.55V194.234C1563.55 177.922 1567.91 165.312 1576.62 156.406C1585.34 147.5 1597.67 143.047 1613.61 143.047C1619.61 143.047 1625.56 143.844 1631.47 145.438L1630.06 166.531C1625.66 165.688 1620.97 165.266 1616 165.266C1607.56 165.266 1601.05 167.75 1596.45 172.719C1591.86 177.594 1589.56 184.625 1589.56 193.812V209.844H1622.05V229.953H1589.56V362H1563.55ZM1686.17 173V209.844H1714.58V229.953H1686.17V324.312C1686.17 330.406 1687.44 335 1689.97 338.094C1692.5 341.094 1696.81 342.594 1702.91 342.594C1705.91 342.594 1710.03 342.031 1715.28 340.906V362C1708.44 363.875 1701.78 364.812 1695.31 364.812C1683.69 364.812 1674.92 361.297 1669.02 354.266C1663.11 347.234 1660.16 337.25 1660.16 324.312V229.953H1632.45V209.844H1660.16V173H1686.17Z" fill="#0277BD"/>
<path d="M107.688 348V143.25H174.625C196.844 143.25 213.531 147.844 224.688 157.031C235.938 166.219 241.562 179.812 241.562 197.812C241.562 207.375 238.844 215.859 233.406 223.266C227.969 230.578 220.562 236.25 211.188 240.281C222.25 243.375 230.969 249.281 237.344 258C243.812 266.625 247.047 276.938 247.047 288.938C247.047 307.312 241.094 321.75 229.188 332.25C217.281 342.75 200.453 348 178.703 348H107.688ZM134.688 252.234V325.922H179.266C191.828 325.922 201.719 322.688 208.938 316.219C216.25 309.656 219.906 300.656 219.906 289.219C219.906 264.562 206.5 252.234 179.688 252.234H134.688ZM134.688 230.578H175.469C187.281 230.578 196.703 227.625 203.734 221.719C210.859 215.812 214.422 207.797 214.422 197.672C214.422 186.422 211.141 178.266 204.578 173.203C198.016 168.047 188.031 165.469 174.625 165.469H134.688V230.578ZM346.188 350.812C325.562 350.812 308.781 344.062 295.844 330.562C282.906 316.969 276.438 298.828 276.438 276.141V271.359C276.438 256.266 279.297 242.812 285.016 231C290.828 219.094 298.891 209.812 309.203 203.156C319.609 196.406 330.859 193.031 342.953 193.031C362.734 193.031 378.109 199.547 389.078 212.578C400.047 225.609 405.531 244.266 405.531 268.547V279.375H302.453C302.828 294.375 307.188 306.516 315.531 315.797C323.969 324.984 334.656 329.578 347.594 329.578C356.781 329.578 364.562 327.703 370.938 323.953C377.312 320.203 382.891 315.234 387.672 309.047L403.562 321.422C390.812 341.016 371.688 350.812 346.188 350.812ZM342.953 214.406C332.453 214.406 323.641 218.25 316.516 225.938C309.391 233.531 304.984 244.219 303.297 258H379.516V256.031C378.766 242.812 375.203 232.594 368.828 225.375C362.453 218.062 353.828 214.406 342.953 214.406Z" fill="white"/>
<path d="M452.281 76.8086H459.383V82.1172H452.281V94H445.742V82.1172H422.434V78.2852L445.355 42.8125H452.281V76.8086ZM429.816 76.8086H445.742V51.707L444.969 53.1133L429.816 76.8086Z" fill="white"/>
</svg>
